<?xml version="1.0" encoding="utf-8"?>
<svg viewBox="0 0 512 512" fill="#00589b" stroke="#00589b" xmlns="http://www.w3.org/2000/svg">
  <g id="SVGRepo_bgCarrier" stroke-width="0"/>
  <g id="SVGRepo_tracerCarrier" stroke-linecap="round" stroke-linejoin="round"/>
  <g id="SVGRepo_iconCarrier">
    <g>
      <g>
        <g>
          <path d="M375.026,46.268c-31.688,0-62.593,12.083-87.023,34.024c-1.109,0.995-1.989,2.215-2.588,3.579 c-0.28,0.636-0.557,1.16-0.849,1.603l-34.157,51.588c-2.315,3.497-2.315,8.039,0,11.537l34.157,51.589 c2.321,3.505,2.321,8.033,0.001,11.537l-34.158,51.592c-2.315,3.497-2.315,8.039,0,11.537l34.157,51.59 c2.321,3.505,2.321,8.033,0,11.536l-34.159,51.6c-2.314,3.497-2.314,8.039,0.001,11.537l30.229,45.663 c2.002,3.024,5.323,4.681,8.722,4.681c1.768,0,3.559-0.449,5.196-1.389c36.187-20.783,88.685-54.506,133.289-97.143 C483.685,299.547,512,246.619,512,195.613C512,113.264,450.554,46.268,375.026,46.268z M292.615,427.013l-20.964-31.668 l30.34-45.831c6.96-10.512,6.959-24.097-0.001-34.609l-30.338-45.822l30.339-45.823c6.96-10.513,6.96-24.097-0.001-34.61 l-30.338-45.821l30.336-45.817c0.529-0.797,1.02-1.626,1.483-2.501c20.342-17.651,45.672-27.346,71.556-27.346 c64.004,0.001,116.076,57.623,116.076,128.448C491.102,297.08,358.555,388.053,292.615,427.013z"/>
          <path d="M 257.387 449.514 C 260.016 453.486 259.627 458.731 256.441 462.271 C 254.407 464.533 251.561 465.732 248.669 465.732 C 247.033 465.732 245.382 465.348 243.854 464.554 C 221.036 452.691 162.071 420.114 107.512 373.905 C 36.172 313.486 0 253.498 0 195.613 C 0 113.264 61.446 46.268 136.974 46.266 C 177.453 46.266 215.645 65.65 241.755 99.448 C 244.489 102.987 244.668 107.875 242.199 111.604 L 225.345 137.059 C 223.024 140.563 223.024 145.091 225.345 148.595 L 259.502 200.185 C 261.817 203.683 261.817 208.225 259.502 211.722 L 225.344 263.314 C 223.024 266.818 223.024 271.346 225.345 274.851 L 259.502 326.442 C 261.817 329.94 261.817 334.481 259.503 337.978 L 225.345 389.577 C 223.025 393.081 223.025 397.609 225.345 401.113 Z M 213.042 369.957 C 212.991 370.118 212.951 370.296 212.92 370.489 L 214.208 368.543 C 213.703 368.743 213.298 369.141 213.042 369.957 Z M 451.147 307.058 C 441.087 321.311 428.837 332.766 416.394 344.748 C 403.74 356.933 380.079 375.609 375.767 379.502 C 374.591 380.563 375.607 379.886 374.298 380.97 C 368.808 385.518 330.291 418.558 314.581 426.003 C 304.299 430.875 296.221 432.757 289.128 430.897 C 282.546 429.172 276.677 421.86 272.975 416.702 C 269.701 412.141 268.09 407.18 267.101 402.018 C 266.092 396.749 266.291 389.43 267.101 385.375 C 267.675 382.507 268.804 380.409 270.038 379.012 C 271.019 377.902 272.136 377.665 273.465 377.054 C 275.007 376.345 276.844 377.369 278.849 375.096 C 283.34 370.006 293.408 346.19 295.491 335.448 C 297.013 327.602 296.457 321.534 294.512 315.869 C 292.682 310.537 287.284 307.481 284.723 302.163 C 281.93 296.365 281.744 286.339 278.849 282.094 C 276.737 278.998 272.819 279.715 271.017 276.71 C 268.698 272.842 267.311 264.822 268.08 259.089 C 268.866 253.232 273.612 244.742 275.912 241.957 C 277.143 240.466 277.702 240.923 279.338 239.999 C 282.055 238.464 288.493 237.142 291.576 233.146 C 295.367 228.231 296.111 213.991 298.428 210.63 C 299.563 208.984 301.229 209.503 301.855 208.672 C 302.376 207.98 302.657 207.593 302.344 206.224 C 301.601 202.976 295.303 191.279 292.065 187.134 C 289.856 184.307 287.097 184.218 285.702 181.75 C 284.229 179.145 283.194 174.911 283.652 171.545 C 282.949 170.888 282.31 170.254 281.748 169.647 C 277.094 164.617 274.899 161.295 272.937 155.941 C 270.775 150.042 269.467 140.065 270 135.383 C 270.345 132.351 272.116 131.163 272.937 129.02 C 273.741 126.92 273.794 125.556 274.895 122.656 C 276.668 117.986 278.826 108.577 283.706 102.588 C 289.22 95.819 296.588 90.634 307.69 84.966 C 323.179 77.059 354.151 64.555 372.302 62.45 C 386.427 60.812 396.15 63.087 408.524 67.345 C 422.499 72.153 440.884 84.026 451.598 91.819 C 459.739 97.74 463.845 99.77 469.709 108.951 C 478.59 122.855 491.278 156.47 495.163 174.542 C 498.076 188.096 497.684 196.847 496.141 208.806 C 494.456 221.87 489.232 238.506 484.394 249.922 C 480.54 259.016 478.944 268.237 471.543 273.107 C 466.011 284.278 457.761 297.687 451.147 307.058 Z"/>
        </g>
      </g>
    </g>
  </g>
</svg>