<?xml version="1.0" encoding="iso-8859-1"?>
<!-- Uploaded to: SVG Repo, www.svgrepo.com, Generator: SVG Repo Mixer Tools -->
<svg fill="#000000" height="800px" width="800px" version="1.1" id="Layer_1" xmlns="http://www.w3.org/2000/svg" xmlns:xlink="http://www.w3.org/1999/xlink" 
	 viewBox="0 0 512 512" xml:space="preserve">
<g>
	<g>
		<g>
			<path d="M375.026,46.268c-31.688,0-62.593,12.083-87.023,34.024c-1.109,0.995-1.989,2.215-2.588,3.579
				c-0.28,0.636-0.557,1.16-0.849,1.603l-34.157,51.588c-2.315,3.497-2.315,8.039,0,11.537l34.157,51.589
				c2.321,3.505,2.321,8.033,0.001,11.537l-34.158,51.592c-2.315,3.497-2.315,8.039,0,11.537l34.157,51.59
				c2.321,3.505,2.321,8.033,0,11.536l-34.159,51.6c-2.314,3.497-2.314,8.039,0.001,11.537l30.229,45.663
				c2.002,3.024,5.323,4.681,8.722,4.681c1.768,0,3.559-0.449,5.196-1.389c36.187-20.783,88.685-54.506,133.289-97.143
				C483.685,299.547,512,246.619,512,195.613C512,113.264,450.554,46.268,375.026,46.268z M292.615,427.013l-20.964-31.668
				l30.34-45.831c6.96-10.512,6.959-24.097-0.001-34.609l-30.338-45.822l30.339-45.823c6.96-10.513,6.96-24.097-0.001-34.61
				l-30.338-45.821l30.336-45.817c0.529-0.797,1.02-1.626,1.483-2.501c20.342-17.651,45.672-27.346,71.556-27.346
				c64.004,0.001,116.076,57.623,116.076,128.448C491.102,297.08,358.555,388.053,292.615,427.013z"/>
			<path d="M225.345,401.113c-2.32-3.504-2.32-8.032,0-11.536l34.158-51.599c2.314-3.497,2.314-8.038-0.001-11.536l-34.157-51.591
				c-2.321-3.505-2.321-8.033-0.001-11.537l34.158-51.592c2.315-3.497,2.315-8.039,0-11.537l-34.157-51.59
				c-2.321-3.504-2.321-8.032,0-11.536l16.854-25.455c2.469-3.729,2.29-8.617-0.444-12.156
				c-26.11-33.798-64.302-53.182-104.781-53.182C61.446,46.268,0,113.264,0,195.613c0,57.885,36.172,117.873,107.512,178.292
				c54.559,46.209,113.524,78.786,136.342,90.649c1.528,0.794,3.179,1.178,4.815,1.178c2.892,0,5.738-1.199,7.772-3.461
				c3.186-3.54,3.575-8.785,0.946-12.757L225.345,401.113z M121.017,357.958C54.582,301.692,20.898,247.071,20.898,195.613
				c0-70.825,52.071-128.447,116.076-128.447c31.624,0,61.693,14.245,83.545,39.332l-12.598,19.026
				c-6.962,10.514-6.962,24.098,0,34.611l30.338,45.821l-30.339,45.823c-6.96,10.513-6.96,24.097,0.001,34.61l30.338,45.823
				l-30.34,45.831c-6.958,10.512-6.958,24.095,0,34.606c0,0,0,0,0,0.001l8.275,12.498
				C189.269,409.099,154.276,386.125,121.017,357.958z"/>
		</g>
	</g>
</g>
</svg>