<svg width="24" height="24" xmlns="http://www.w3.org/2000/svg" fill="none">

 <g>
  <title>Layer 1</title>
  <g stroke-width="0" id="SVGRepo_bgCarrier"/>
  <g stroke-linejoin="round" stroke-linecap="round" id="SVGRepo_tracerCarrier"/>
  <g transform="rotate(-90 12 12)" id="SVGRepo_iconCarrier">
   <path id="svg_1" stroke-linecap="round" stroke="#222222" d="m7.5,3.5l0,3"/>
   <path id="svg_2" stroke-linecap="round" stroke="#222222" d="m7.5,14.5l0,4"/>
   <path id="svg_3" stroke="#222222" d="m6.8,6.5c-0.71797,0 -1.3,0.58203 -1.3,1.3l0,5.4c0,0.718 0.58203,1.3 1.3,1.3l1.4,0c0.71797,0 1.3,-0.582 1.3,-1.3l0,-5.4c0,-0.71797 -0.58203,-1.3 -1.3,-1.3l-1.4,0z"/>
   <path id="svg_4" stroke-linecap="round" stroke="#222222" d="m16.5,6.5l0,5"/>
   <path id="svg_5" stroke-linecap="round" stroke="#222222" d="m16.5,16.5l0,4"/>
   <path id="svg_6" stroke="#222222" d="m15.8,11.5c-0.718,0 -1.3,0.582 -1.3,1.3l0,2.4c0,0.718 0.582,1.3 1.3,1.3l1.4,0c0.718,0 1.3,-0.582 1.3,-1.3l0,-2.4c0,-0.718 -0.582,-1.3 -1.3,-1.3l-1.4,0z"/>
  </g>
 </g>
</svg>