<?xml version="1.0" encoding="utf-8"?>
<!-- Uploaded to: SVG Repo, www.svgrepo.com, Generator: SVG Repo Mixer Tools -->
<svg fill="#000000" width="800px" height="800px" viewBox="0 0 32 32" version="1.1" xmlns="http://www.w3.org/2000/svg">
<title>hashtag</title>
<path d="M30.297 10.75c0.414 0 0.75-0.336 0.75-0.75s-0.336-0.75-0.75-0.75v0h-6.83l1.271-7.118c0.008-0.042 0.013-0.090 0.013-0.14 0-0.414-0.336-0.75-0.75-0.75-0.37 0-0.678 0.268-0.739 0.621l-0.001 0.004-1.318 7.382h-10.476l1.271-7.118c0.007-0.037 0.010-0.080 0.010-0.124 0-0.414-0.336-0.75-0.75-0.75-0.365 0-0.669 0.261-0.736 0.606l-0.001 0.005-1.318 7.382h-7.647c-0.414 0-0.75 0.336-0.75 0.75s0.336 0.75 0.75 0.75v0h7.379l-1.875 10.5h-5.801c-0.414 0-0.75 0.336-0.75 0.75s0.336 0.75 0.75 0.75v0h5.533l-1.271 7.117c-0.008 0.040-0.012 0.086-0.012 0.133 0 0.368 0.265 0.673 0.614 0.737l0.005 0.001c0.040 0.007 0.086 0.012 0.133 0.012h0c0.367-0.001 0.672-0.264 0.737-0.613l0.001-0.005 1.318-7.383h10.476l-1.271 7.117c-0.007 0.040-0.012 0.085-0.012 0.132 0 0.367 0.264 0.673 0.613 0.738l0.005 0.001c0.040 0.007 0.086 0.012 0.133 0.012h0c0.367-0 0.673-0.264 0.738-0.613l0.001-0.005 1.318-7.383h8.943c0.414 0 0.75-0.336 0.75-0.75s-0.336-0.75-0.75-0.75v0h-8.676l1.875-10.5zM19.801 21.25h-10.476l1.875-10.5h10.476z"></path>
</svg>