<svg width="179.639" height="67.287" viewBox="0 0 179.639 67.287" xmlns="http://www.w3.org/2000/svg"><g id="svgGroup" stroke-linecap="round" fill-rule="evenodd" font-size="9pt" stroke="#006BA6" stroke-width="0.5mm" fill="#006BA6" style="stroke:#006BA6;stroke-width:0.5mm;fill:#006BA6"><path d="M 23.148 37.631 A 80.48 80.48 0 0 0 27.295 37.94 A 36.154 36.154 0 0 0 26.187 38.578 A 31.25 31.25 0 0 0 17.383 46.338 A 25.273 25.273 0 0 0 16.481 47.568 A 21.643 21.643 0 0 0 14.38 51.367 A 15.112 15.112 0 0 0 14.312 51.529 A 13.279 13.279 0 0 0 13.281 56.616 A 11.293 11.293 0 0 0 13.391 58.215 A 8.726 8.726 0 0 0 14.404 61.279 Q 17.676 67.236 27.295 67.236 A 15.484 15.484 0 0 0 28.848 67.158 Q 31.63 66.878 34.47 65.596 A 26.277 26.277 0 0 0 38.867 63.037 A 38.626 38.626 0 0 0 43.848 58.74 A 57.92 57.92 0 0 0 44.427 58.141 A 52.312 52.312 0 0 0 48.096 53.857 Q 49.107 52.535 50.153 50.95 A 73.391 73.391 0 0 0 52.026 47.949 A 29.296 29.296 0 0 0 52.886 46.403 Q 54.053 44.131 54.053 42.871 A 2.855 2.855 0 0 0 54.02 42.424 Q 53.797 41.024 52.077 41.055 A 4.582 4.582 0 0 0 51.855 41.065 A 34.282 34.282 0 0 1 50.998 42.285 A 29.775 29.775 0 0 1 44.922 48.486 A 23.596 23.596 0 0 1 42.787 49.896 Q 39.579 51.758 36.816 51.758 Q 32.709 51.758 31.714 49.15 A 5.406 5.406 0 0 1 31.396 47.217 A 5.679 5.679 0 0 1 31.493 46.188 A 7.159 7.159 0 0 1 31.836 44.971 A 15.88 15.88 0 0 1 33.919 41.231 A 20.836 20.836 0 0 1 36.719 38.184 A 1.514 1.514 0 0 0 37.095 38.136 Q 37.369 38.066 37.643 37.894 A 2.997 2.997 0 0 0 38.086 37.549 Q 40.576 35.449 40.918 32.08 A 74.165 74.165 0 0 1 37.022 31.763 Q 32.869 31.312 29.3 30.408 A 38.032 38.032 0 0 1 21.973 27.783 Q 23.218 25.073 23.529 23.531 A 4.623 4.623 0 0 0 23.633 22.632 A 4.334 4.334 0 0 0 23.596 22.054 A 3.088 3.088 0 0 0 22.656 20.166 A 7.46 7.46 0 0 0 20.951 18.918 Q 19.721 18.258 18.147 17.963 A 15.027 15.027 0 0 0 15.381 17.725 Q 14.111 17.725 11.714 20.368 A 34.858 34.858 0 0 0 10.547 21.729 Q 7.08 25.83 7.08 28.467 A 6.092 6.092 0 0 0 7.88 31.557 Q 9.106 33.69 12.207 35.107 A 32.532 32.532 0 0 1 0 50.781 A 1.434 1.434 0 0 0 0.287 51.161 Q 1.248 52.099 4.59 52.832 A 8.388 8.388 0 0 0 4.947 52.902 Q 6.888 53.236 7.471 52.295 A 172.661 172.661 0 0 0 12.354 44.983 A 228.196 228.196 0 0 0 17.334 36.719 Q 19.897 37.299 23.148 37.631 Z" id="0" vector-effect="non-scaling-stroke"/><path d="M 86.035 62.158 Q 76.758 67.285 69.043 67.285 A 28.795 28.795 0 0 1 62.348 66.548 A 20.359 20.359 0 0 1 53.906 62.402 A 16.745 16.745 0 0 1 47.764 50.168 A 23.473 23.473 0 0 1 47.705 48.486 A 13.619 13.619 0 0 1 50.829 39.947 Q 52.539 37.759 55.186 35.736 A 39.838 39.838 0 0 1 59.912 32.666 Q 66.65 28.906 73.755 26.416 Q 80.11 24.188 84.258 22.781 A 513.715 513.715 0 0 1 85.205 22.461 A 62.935 62.935 0 0 1 88.806 14.313 Q 93.6 5.382 100.195 1.807 Q 103.516 0 106.494 0 A 24.54 24.54 0 0 1 108.229 0.057 Q 109.859 0.173 110.97 0.524 A 6.815 6.815 0 0 1 111.157 0.586 A 9.411 9.411 0 0 1 112.868 1.371 A 7.677 7.677 0 0 1 114.014 2.197 Q 116.504 4.297 116.504 7.398 A 10.294 10.294 0 0 1 115.959 10.788 A 9.288 9.288 0 0 1 114.917 12.891 A 15.818 15.818 0 0 1 112.628 15.594 A 20.49 20.49 0 0 1 110.596 17.285 A 32.537 32.537 0 0 1 107.321 19.384 Q 103.783 21.391 98.575 23.483 A 124.104 124.104 0 0 1 96.826 24.17 A 37.013 37.013 0 0 0 96.805 24.799 Q 96.786 25.516 96.78 26.519 A 165.537 165.537 0 0 0 96.777 27.49 A 39.538 39.538 0 0 0 99.121 41.016 Q 105.1 36.925 108.301 32.631 A 19.765 19.765 0 0 0 110.986 27.832 A 57.58 57.58 0 0 0 111.746 27.979 A 66.014 66.014 0 0 0 112.012 28.027 A 3.265 3.265 0 0 1 112.748 28.25 A 2.924 2.924 0 0 1 112.988 28.369 A 1.676 1.676 0 0 1 113.896 29.56 A 2.981 2.981 0 0 1 113.965 30.225 A 6.504 6.504 0 0 1 113.875 31.251 Q 113.707 32.297 113.223 33.648 A 21.366 21.366 0 0 1 113.208 33.691 A 23.711 23.711 0 0 1 112.232 35.991 A 31.811 31.811 0 0 1 111.084 38.135 A 53.56 53.56 0 0 1 106.417 44.78 A 65.227 65.227 0 0 1 103.418 48.193 Q 105.859 50.488 108.228 50.488 A 24.617 24.617 0 0 0 110.335 50.403 Q 111.395 50.311 112.327 50.123 A 14.899 14.899 0 0 0 112.451 50.098 Q 114.307 49.707 116.064 49.072 A 27.441 27.441 0 0 0 118.219 48.259 Q 120.541 47.261 121.777 46.094 A 3.774 3.774 0 0 1 122.63 46.564 Q 123.584 47.28 123.584 48.486 A 2.625 2.625 0 0 1 123.497 49.101 Q 123.25 50.102 122.309 51.854 A 33.459 33.459 0 0 1 122.095 52.246 A 43.046 43.046 0 0 1 120.646 54.676 Q 119.872 55.878 119.092 56.885 A 32.997 32.997 0 0 1 116.589 59.744 A 38.375 38.375 0 0 1 115.601 60.718 A 23.399 23.399 0 0 1 111.71 63.69 A 26.38 26.38 0 0 1 111.084 64.063 A 23.952 23.952 0 0 1 101.773 67.084 A 30.207 30.207 0 0 1 98.242 67.285 Q 90.967 67.285 86.035 62.158 Z M 80.664 48.291 L 80.664 47.461 A 68.005 68.005 0 0 1 81.618 36.337 A 84.214 84.214 0 0 1 83.105 29.297 Q 75.293 32.324 72.217 34.522 Q 69.22 36.662 67.891 38.502 A 8.569 8.569 0 0 0 67.822 38.599 A 7.085 7.085 0 0 0 66.697 41.273 A 9.983 9.983 0 0 0 66.504 43.286 A 5.897 5.897 0 0 0 68.34 47.684 A 7.262 7.262 0 0 0 68.628 47.949 A 7.422 7.422 0 0 0 72.454 49.688 A 10.174 10.174 0 0 0 74.023 49.805 A 33.801 33.801 0 0 0 80.18 49.224 A 37.528 37.528 0 0 0 80.713 49.121 A 6.362 6.362 0 0 1 80.669 48.561 A 7.509 7.509 0 0 1 80.664 48.291 Z M 97.412 18.213 A 67.353 67.353 0 0 0 101.826 16.37 Q 108.49 13.279 109.975 10.266 A 3.866 3.866 0 0 0 110.4 8.545 A 4.519 4.519 0 0 0 110.214 7.199 Q 109.774 5.784 108.29 5.207 A 4.732 4.732 0 0 0 107.91 5.078 Q 107.227 4.883 105.981 4.883 A 3.602 3.602 0 0 0 104.848 5.078 Q 104.375 5.235 103.872 5.517 A 8.058 8.058 0 0 0 103.247 5.908 A 8.552 8.552 0 0 0 101.529 7.495 A 11.1 11.1 0 0 0 100.635 8.74 A 18.833 18.833 0 0 0 98.902 12.296 Q 97.938 14.894 97.412 18.213 Z" id="1" vector-effect="non-scaling-stroke"/><path d="M 148.734 37.631 A 80.48 80.48 0 0 0 152.881 37.94 A 36.154 36.154 0 0 0 151.773 38.578 A 31.25 31.25 0 0 0 142.969 46.338 A 25.273 25.273 0 0 0 142.067 47.568 A 21.643 21.643 0 0 0 139.966 51.367 A 15.112 15.112 0 0 0 139.898 51.529 A 13.279 13.279 0 0 0 138.867 56.616 A 11.293 11.293 0 0 0 138.977 58.215 A 8.726 8.726 0 0 0 139.99 61.279 Q 143.262 67.236 152.881 67.236 A 15.484 15.484 0 0 0 154.434 67.158 Q 157.216 66.878 160.056 65.596 A 26.277 26.277 0 0 0 164.453 63.037 A 38.626 38.626 0 0 0 169.434 58.74 A 57.92 57.92 0 0 0 170.013 58.141 A 52.312 52.312 0 0 0 173.682 53.857 Q 174.693 52.535 175.739 50.95 A 73.391 73.391 0 0 0 177.612 47.949 A 29.296 29.296 0 0 0 178.472 46.403 Q 179.639 44.131 179.639 42.871 A 2.855 2.855 0 0 0 179.606 42.424 Q 179.383 41.024 177.663 41.055 A 4.582 4.582 0 0 0 177.441 41.065 A 34.282 34.282 0 0 1 176.584 42.285 A 29.775 29.775 0 0 1 170.508 48.486 A 23.596 23.596 0 0 1 168.373 49.896 Q 165.165 51.758 162.402 51.758 Q 158.295 51.758 157.3 49.15 A 5.406 5.406 0 0 1 156.982 47.217 A 5.679 5.679 0 0 1 157.079 46.188 A 7.159 7.159 0 0 1 157.422 44.971 A 15.88 15.88 0 0 1 159.505 41.231 A 20.836 20.836 0 0 1 162.305 38.184 A 1.514 1.514 0 0 0 162.681 38.136 Q 162.955 38.066 163.229 37.894 A 2.997 2.997 0 0 0 163.672 37.549 Q 166.162 35.449 166.504 32.08 A 74.165 74.165 0 0 1 162.608 31.763 Q 158.455 31.312 154.886 30.408 A 38.032 38.032 0 0 1 147.559 27.783 Q 148.804 25.073 149.115 23.531 A 4.623 4.623 0 0 0 149.219 22.632 A 4.334 4.334 0 0 0 149.181 22.054 A 3.088 3.088 0 0 0 148.242 20.166 A 7.46 7.46 0 0 0 146.537 18.918 Q 145.307 18.258 143.733 17.963 A 15.027 15.027 0 0 0 140.967 17.725 Q 139.697 17.725 137.3 20.368 A 34.858 34.858 0 0 0 136.133 21.729 Q 132.666 25.83 132.666 28.467 A 6.092 6.092 0 0 0 133.466 31.557 Q 134.692 33.69 137.793 35.107 A 32.532 32.532 0 0 1 125.586 50.781 A 1.434 1.434 0 0 0 125.873 51.161 Q 126.834 52.099 130.176 52.832 A 8.388 8.388 0 0 0 130.533 52.902 Q 132.474 53.236 133.057 52.295 A 172.661 172.661 0 0 0 137.939 44.983 A 228.196 228.196 0 0 0 142.92 36.719 Q 145.483 37.299 148.734 37.631 Z" id="2" vector-effect="non-scaling-stroke"/></g></svg>